<svg width="53" height="61" viewBox="0 0 53 61" fill="none" xmlns="http://www.w3.org/2000/svg">
<rect y="18.8552" width="7.54209" height="22.6263" rx="3.77105" fill="white"/>
<path d="M15.084 37.7102C15.0839 35.6277 13.3959 33.9399 11.3135 33.9397C9.23086 33.9397 7.54212 35.6276 7.54199 37.7102V22.6262C7.54199 24.7089 9.23079 26.3977 11.3135 26.3977C13.396 26.3975 15.084 24.7088 15.084 22.6262V37.7102Z" fill="white"/>
<rect x="15.084" y="11.3132" width="7.54209" height="45.2526" rx="3.77105" fill="white"/>
<circle cx="18.855" cy="3.77105" r="3.77105" fill="white"/>
<rect x="52.7944" y="41.4814" width="7.54209" height="22.6263" rx="3.77105" transform="rotate(-180 52.7944 41.4814)" fill="white"/>
<path d="M37.7104 22.6265C37.7105 24.7091 39.3993 26.397 41.4819 26.397C43.5644 26.3967 45.2524 24.709 45.2524 22.6265V37.7104C45.2524 35.6279 43.5644 33.9392 41.4819 33.939C39.3993 33.939 37.7105 35.6278 37.7104 37.7104V22.6265Z" fill="white"/>
<rect x="37.71" y="49.0237" width="7.54209" height="45.2526" rx="3.77105" transform="rotate(-180 37.71 49.0237)" fill="white"/>
<circle cx="33.9389" cy="56.5659" r="3.77105" transform="rotate(-180 33.9389 56.5659)" fill="white"/>
</svg>
