<svg width="115" height="40" viewBox="0 0 115 40" fill="none" xmlns="http://www.w3.org/2000/svg">
<rect width="115" height="40" rx="20" fill="#4C75DD"/>
<g clip-path="url(#clip0_160_98)">
<path d="M11.0783 14.4101L14.4117 11.0767C14.5689 10.925 14.7795 10.8412 14.998 10.8432C15.2165 10.8453 15.4254 10.9331 15.5798 11.0877C15.7342 11.2423 15.8217 11.4514 15.8235 11.6699C15.8252 11.8884 15.7411 12.0988 15.5892 12.2559L13.6783 14.1667H17.5C17.721 14.1667 17.933 14.2545 18.0892 14.4108C18.2455 14.5671 18.3333 14.779 18.3333 15.0001C18.3333 15.2211 18.2455 15.433 18.0892 15.5893C17.933 15.7456 17.721 15.8334 17.5 15.8334H13.6783L15.5892 17.7442C15.6687 17.8211 15.7322 17.913 15.7759 18.0147C15.8196 18.1164 15.8426 18.2257 15.8435 18.3364C15.8445 18.447 15.8234 18.5568 15.7815 18.6592C15.7396 18.7616 15.6777 18.8546 15.5995 18.9329C15.5212 19.0111 15.4282 19.073 15.3258 19.1149C15.2234 19.1568 15.1136 19.1779 15.003 19.1769C14.8923 19.176 14.783 19.153 14.6813 19.1093C14.5796 19.0656 14.4877 19.0021 14.4108 18.9226L11.0775 15.5892C11.0001 15.5118 10.9387 15.4198 10.8968 15.3186C10.8549 15.2174 10.8334 15.109 10.8335 14.9995C10.8336 14.89 10.8552 14.7815 10.8972 14.6804C10.9393 14.5793 11.0008 14.4874 11.0783 14.4101ZM27.0367 17.1726C26.4068 16.8311 25.6998 16.6569 24.9833 16.6667H21.6942V13.4259C21.7015 12.8216 21.4959 12.234 21.1135 11.7661C20.7311 11.2982 20.1961 10.9798 19.6025 10.8667C19.0181 10.7721 18.419 10.8841 17.9083 11.1834C17.7181 11.2961 17.5805 11.4798 17.5257 11.6939C17.471 11.9081 17.5035 12.1353 17.6162 12.3255C17.729 12.5157 17.9126 12.6533 18.1268 12.708C18.341 12.7628 18.5681 12.7303 18.7583 12.6176C18.9319 12.5135 19.1375 12.4762 19.3367 12.5126C19.5399 12.5622 19.7197 12.6806 19.8456 12.8476C19.9715 13.0147 20.0358 13.2202 20.0275 13.4292V17.5001C20.0275 17.7211 20.1153 17.933 20.2716 18.0893C20.4278 18.2456 20.6398 18.3334 20.8608 18.3334H24.9833C25.4138 18.3236 25.8395 18.4243 26.22 18.6259C26.6581 18.8648 27.013 19.2316 27.2373 19.6774C27.4617 20.1231 27.5449 20.6267 27.4758 21.1209L27.1242 23.5726C26.9477 24.7838 26.3851 25.9058 25.52 26.7717C25.2883 27.0034 25.013 27.187 24.7101 27.312C24.4073 27.437 24.0827 27.5009 23.755 27.5001H18.6983C18.3707 27.5009 18.046 27.437 17.7432 27.312C17.4403 27.187 17.165 27.0034 16.9333 26.7717L14.4117 24.2584C14.3257 24.1723 14.2596 24.0685 14.218 23.9541C14.1764 23.8398 14.1604 23.7177 14.1711 23.5965C14.1817 23.4753 14.2187 23.3579 14.2796 23.2526C14.3405 23.1472 14.4236 23.0565 14.5233 22.9867C14.703 22.8785 14.9144 22.8352 15.1221 22.864C15.3299 22.8928 15.5215 22.992 15.665 23.1451L16.9267 24.4026C17.0433 24.5188 17.1918 24.5979 17.3533 24.6299C17.5149 24.6618 17.6823 24.6452 17.8344 24.5821C17.9865 24.5189 18.1165 24.4122 18.208 24.2752C18.2995 24.1382 18.3483 23.9772 18.3483 23.8126V18.3334C18.3483 18.1124 18.2605 17.9004 18.1042 17.7441C17.948 17.5879 17.736 17.5001 17.515 17.5001C17.294 17.5001 17.082 17.5879 16.9257 17.7441C16.7694 17.9004 16.6817 18.1124 16.6817 18.3334V21.8184C16.2534 21.4468 15.7143 21.2271 15.1482 21.1935C14.5822 21.1599 14.0209 21.3142 13.5517 21.6326C13.2554 21.8434 13.0088 22.1163 12.8289 22.4323C12.649 22.7482 12.5402 23.0996 12.51 23.462C12.4799 23.8243 12.5291 24.1889 12.6543 24.5302C12.7795 24.8716 12.9777 25.1815 13.235 25.4384L15.7575 27.9517C16.1433 28.3383 16.6017 28.6446 17.1065 28.8532C17.6112 29.0617 18.1522 29.1683 18.6983 29.1667H23.755C24.3012 29.1681 24.8423 29.0615 25.3471 28.8529C25.852 28.6444 26.3106 28.3381 26.6967 27.9517C27.817 26.8302 28.5453 25.3771 28.7733 23.8084L29.125 21.3567C29.2435 20.5297 29.1072 19.6862 28.7341 18.9386C28.361 18.191 27.7688 17.575 27.0367 17.1726Z" fill="#D8D8D8"/>
</g>
<path d="M42.4658 14.7666C42.4658 16.8667 41.209 18.1289 39.0874 18.1289C36.8262 18.1289 35.4189 16.5928 35.4189 14.0952C35.4189 11.6353 36.8208 10.1206 39.0605 10.1206C40.8223 10.1206 42.1543 11.1626 42.4067 12.7148H40.9995C40.7363 11.8232 40.0166 11.2969 39.0659 11.2969C37.6694 11.2969 36.8369 12.3335 36.8369 14.0791C36.8369 15.8623 37.707 16.9526 39.1035 16.9526C40.2744 16.9526 41.0854 16.2114 41.1069 15.1265L41.1123 14.9976H39.2432V13.9395H42.4658V14.7666ZM45.9194 13.2251C45.1675 13.2251 44.625 13.7998 44.5713 14.5947H47.23C47.2031 13.7891 46.6875 13.2251 45.9194 13.2251ZM47.2354 16.2974H48.4868C48.3149 17.3716 47.3159 18.1128 45.9678 18.1128C44.2598 18.1128 43.2285 16.9902 43.2285 15.1748C43.2285 13.3755 44.2705 12.1885 45.9141 12.1885C47.5308 12.1885 48.5405 13.311 48.5405 15.0405V15.4756H44.5605V15.5562C44.5605 16.4692 45.1191 17.0815 45.9946 17.0815C46.6177 17.0815 47.0903 16.77 47.2354 16.2974ZM49.3032 13.9395C49.3032 12.8975 50.2217 12.1885 51.6074 12.1885C52.9448 12.1885 53.8525 12.9082 53.8848 13.9609H52.6387C52.5957 13.4722 52.2036 13.1714 51.5806 13.1714C50.9897 13.1714 50.603 13.4507 50.603 13.8643C50.603 14.1865 50.8608 14.4014 51.4194 14.5356L52.4346 14.7612C53.5732 15.0298 54.019 15.4702 54.019 16.3135C54.019 17.3877 53.0254 18.1128 51.5859 18.1128C50.1572 18.1128 49.2495 17.4038 49.1582 16.3242H50.4741C50.5547 16.8452 50.9575 17.1353 51.6343 17.1353C52.2842 17.1353 52.687 16.8721 52.687 16.4478C52.687 16.1147 52.4775 15.9375 51.9243 15.7979L50.8877 15.5562C49.835 15.3091 49.3032 14.7612 49.3032 13.9395ZM55.2437 10.9746H56.5811V12.3066H57.6553V13.3379H56.5811V16.2974C56.5811 16.7646 56.7959 16.9795 57.2686 16.9795C57.3921 16.9795 57.564 16.9688 57.6499 16.9526V17.9731C57.5049 18.0054 57.2417 18.0269 56.957 18.0269C55.7271 18.0269 55.2437 17.5918 55.2437 16.4854V13.3379H54.4272V12.3066H55.2437V10.9746ZM63.6172 12.3066V18H62.3281V17.0117H62.3013C62.0005 17.7046 61.4258 18.1021 60.561 18.1021C59.3257 18.1021 58.5415 17.3018 58.5415 15.9858V12.3066H59.8789V15.7173C59.8789 16.5337 60.2764 16.9741 61.0283 16.9741C61.8018 16.9741 62.2798 16.4263 62.2798 15.5991V12.3066H63.6172ZM64.7129 18V12.3066H65.9966V13.3003H66.0234C66.2168 12.6074 66.7163 12.21 67.3877 12.21C67.5596 12.21 67.71 12.2422 67.8066 12.2637V13.4722C67.6938 13.4292 67.4897 13.397 67.2642 13.397C66.5068 13.397 66.0503 13.8857 66.0503 14.686V18H64.7129ZM70.7339 13.2251C69.9819 13.2251 69.4395 13.7998 69.3857 14.5947H72.0444C72.0176 13.7891 71.502 13.2251 70.7339 13.2251ZM72.0498 16.2974H73.3013C73.1294 17.3716 72.1304 18.1128 70.7822 18.1128C69.0742 18.1128 68.043 16.9902 68.043 15.1748C68.043 13.3755 69.085 12.1885 70.7285 12.1885C72.3452 12.1885 73.355 13.311 73.355 15.0405V15.4756H69.375V15.5562C69.375 16.4692 69.9336 17.0815 70.8091 17.0815C71.4321 17.0815 71.9048 16.77 72.0498 16.2974Z" fill="white"/>
<path d="M39.0659 21.1206C41.2949 21.1206 42.6968 22.6621 42.6968 25.1274C42.6968 27.5928 41.2949 29.1289 39.0659 29.1289C36.8315 29.1289 35.4351 27.5928 35.4351 25.1274C35.4351 22.6621 36.8315 21.1206 39.0659 21.1206ZM39.0659 22.1787C37.5942 22.1787 36.665 23.3174 36.665 25.1274C36.665 26.9321 37.5942 28.0708 39.0659 28.0708C40.5376 28.0708 41.4614 26.9321 41.4614 25.1274C41.4614 23.3174 40.5376 22.1787 39.0659 22.1787ZM43.7065 29V23.3496H44.813V24.2949H44.8398C45.146 23.6504 45.7476 23.2529 46.6177 23.2529C47.8638 23.2529 48.5781 24.0479 48.5781 25.3423V29H47.4126V25.5679C47.4126 24.7192 47.0151 24.252 46.2095 24.252C45.3931 24.252 44.8667 24.832 44.8667 25.7075V29H43.7065Z" fill="#D8D8D8"/>
<defs>
<clipPath id="clip0_160_98">
<rect width="20" height="20" fill="white" transform="translate(10 10)"/>
</clipPath>
</defs>
</svg>
