<svg width="20" height="20" viewBox="0 0 20 20" fill="none" xmlns="http://www.w3.org/2000/svg">
<g clip-path="url(#clip0_7_233)">
<path d="M1.07832 4.41L4.41165 1.07667C4.56893 0.924979 4.77949 0.84113 4.99799 0.843181C5.21649 0.845233 5.42544 0.933022 5.57983 1.08764C5.73423 1.24226 5.82173 1.45133 5.82347 1.66983C5.82521 1.88833 5.74106 2.09878 5.58915 2.25584L3.67832 4.16667H7.49999C7.721 4.16667 7.93296 4.25447 8.08924 4.41075C8.24552 4.56703 8.33332 4.77899 8.33332 5C8.33332 5.22102 8.24552 5.43298 8.08924 5.58926C7.93296 5.74554 7.721 5.83334 7.49999 5.83334H3.67832L5.58915 7.74417C5.66874 7.82104 5.73223 7.913 5.7759 8.01467C5.81958 8.11634 5.84257 8.22569 5.84353 8.33634C5.84449 8.44699 5.8234 8.55672 5.7815 8.65913C5.7396 8.76155 5.67772 8.85459 5.59948 8.93283C5.52124 9.01108 5.42819 9.07295 5.32578 9.11485C5.22337 9.15675 5.11363 9.17784 5.00298 9.17688C4.89233 9.17592 4.78298 9.15293 4.68131 9.10925C4.57964 9.06558 4.48769 9.00209 4.41082 8.9225L1.07749 5.58917C1.00006 5.51172 0.938659 5.41977 0.896793 5.31858C0.854928 5.21738 0.833419 5.10893 0.833496 4.99941C0.833574 4.8899 0.855236 4.78148 0.897244 4.68034C0.939253 4.57921 1.00078 4.48734 1.07832 4.41ZM17.0367 7.1725C16.4068 6.831 15.6998 6.65683 14.9833 6.66667H11.6942V3.42584C11.7015 2.82156 11.4959 2.23397 11.1135 1.76605C10.7311 1.29813 10.1961 0.97974 9.60248 0.86667C9.01812 0.772046 8.41905 0.884022 7.90832 1.18334C7.71814 1.29605 7.58052 1.4797 7.52574 1.69389C7.47097 1.90807 7.50352 2.13524 7.61624 2.32542C7.72895 2.5156 7.9126 2.65322 8.12678 2.708C8.34097 2.76277 8.56814 2.73022 8.75832 2.6175C8.93194 2.51342 9.13752 2.4761 9.33665 2.5125C9.53988 2.56214 9.71969 2.68053 9.8456 2.8476C9.97151 3.01466 10.0358 3.22013 10.0275 3.42917V7.5C10.0275 7.72102 10.1153 7.93298 10.2716 8.08926C10.4278 8.24554 10.6398 8.33334 10.8608 8.33334H14.9833C15.4138 8.32359 15.8395 8.42429 16.22 8.62584C16.6581 8.86479 17.013 9.23158 17.2373 9.67733C17.4617 10.1231 17.5449 10.6266 17.4758 11.1208L17.1242 13.5725C16.9477 14.7837 16.3851 15.9057 15.52 16.7717C15.2883 17.0033 15.013 17.1869 14.7101 17.3119C14.4073 17.4369 14.0827 17.5008 13.755 17.5H8.69832C8.37065 17.5008 8.04605 17.4369 7.74315 17.3119C7.44026 17.1869 7.16505 17.0033 6.93332 16.7717L4.41165 14.2583C4.32567 14.1723 4.25957 14.0684 4.218 13.9541C4.17644 13.8397 4.16041 13.7177 4.17106 13.5965C4.1817 13.4753 4.21875 13.3579 4.27961 13.2525C4.34046 13.1472 4.42365 13.0564 4.52332 12.9867C4.70301 12.8785 4.91438 12.8351 5.12215 12.864C5.32992 12.8928 5.52153 12.992 5.66498 13.145L6.92665 14.4025C7.04329 14.5188 7.19176 14.5979 7.35332 14.6298C7.51489 14.6618 7.6823 14.6451 7.83441 14.582C7.98652 14.5189 8.11652 14.4121 8.20798 14.2751C8.29945 14.1382 8.34828 13.9772 8.34832 13.8125V8.33334C8.34832 8.11232 8.26052 7.90036 8.10424 7.74408C7.94796 7.5878 7.736 7.5 7.51499 7.5C7.29397 7.5 7.08201 7.5878 6.92573 7.74408C6.76945 7.90036 6.68165 8.11232 6.68165 8.33334V11.8183C6.25335 11.4467 5.71428 11.227 5.14824 11.1934C4.5822 11.1598 4.02091 11.3142 3.55165 11.6325C3.25544 11.8433 3.00879 12.1163 2.82888 12.4322C2.64898 12.7482 2.54016 13.0996 2.51001 13.4619C2.47986 13.8243 2.52911 14.1888 2.65432 14.5302C2.77953 14.8715 2.97769 15.1814 3.23499 15.4383L5.75748 17.9517C6.14326 18.3382 6.60173 18.6446 7.10646 18.8531C7.61119 19.0616 8.15221 19.1682 8.69832 19.1667H13.755C14.3012 19.168 14.8423 19.0614 15.3471 18.8529C15.852 18.6444 16.3106 18.3381 16.6967 17.9517C17.817 16.8302 18.5453 15.377 18.7733 13.8083L19.125 11.3567C19.2435 10.5296 19.1072 9.6861 18.7341 8.93855C18.361 8.19099 17.7688 7.57493 17.0367 7.1725Z" fill="#D8D8D8"/>
</g>
<defs>
<clipPath id="clip0_7_233">
<rect width="20" height="20" fill="white"/>
</clipPath>
</defs>
</svg>
