<svg width="200" height="61" viewBox="0 0 200 61" fill="none" xmlns="http://www.w3.org/2000/svg">
<rect y="18.8552" width="7.54209" height="22.6263" rx="3.77105" fill="white"/>
<path d="M15.084 37.7102C15.0839 35.6277 13.3959 33.9399 11.3135 33.9397C9.23086 33.9397 7.54212 35.6276 7.54199 37.7102V22.6262C7.54199 24.7089 9.23079 26.3977 11.3135 26.3977C13.396 26.3975 15.084 24.7088 15.084 22.6262V37.7102Z" fill="white"/>
<rect x="15.0842" y="11.3132" width="7.54209" height="45.2526" rx="3.77105" fill="white"/>
<circle cx="18.8553" cy="3.77105" r="3.77105" fill="white"/>
<rect x="52.7947" y="41.4814" width="7.54209" height="22.6263" rx="3.77105" transform="rotate(-180 52.7947 41.4814)" fill="white"/>
<path d="M37.7104 22.6265C37.7105 24.7091 39.3993 26.397 41.4819 26.397C43.5644 26.3967 45.2524 24.709 45.2524 22.6265V37.7104C45.2524 35.6279 43.5644 33.9392 41.4819 33.939C39.3993 33.939 37.7105 35.6278 37.7104 37.7104V22.6265Z" fill="white"/>
<rect x="37.7104" y="49.0237" width="7.54209" height="45.2526" rx="3.77105" transform="rotate(-180 37.7104 49.0237)" fill="white"/>
<circle cx="33.9394" cy="56.5659" r="3.77105" transform="rotate(-180 33.9394 56.5659)" fill="white"/>
<path d="M83.471 45.5696V16.1377H88.7536L98.2787 39.6343H98.4011L107.947 16.1377H113.209V45.5696H109.048V23.8475H108.905L100.033 45.5696H96.647L87.7746 23.8475H87.6318V45.5696H83.471ZM125.406 45.9979C120.694 45.9979 118.002 42.9589 118.002 38.023V24.1127H122.408V37.1663C122.408 40.4093 123.917 42.2042 126.976 42.2042C130.077 42.2042 132.075 39.981 132.075 36.636V24.1127H136.501V45.5696H132.075V42.347H131.973C130.852 44.509 128.669 45.9979 125.406 45.9979ZM148.902 45.9979C143.538 45.9979 140.397 43.3464 139.948 39.4303L139.928 39.2467H144.293L144.334 39.4507C144.741 41.4291 146.21 42.5917 148.923 42.5917C151.574 42.5917 153.165 41.4903 153.165 39.7566V39.7362C153.165 38.3493 152.39 37.5538 150.085 37.0031L146.577 36.2077C142.498 35.2695 140.479 33.3114 140.479 30.1908V30.1704C140.479 26.3359 143.824 23.7048 148.76 23.7048C153.838 23.7048 156.898 26.5398 157.122 30.1908L157.142 30.4355H153.002L152.982 30.2928C152.716 28.4163 151.248 27.1109 148.76 27.1109C146.394 27.1109 144.905 28.2327 144.905 29.946V29.9664C144.905 31.2922 145.782 32.1896 148.086 32.7403L151.574 33.5358C155.959 34.5556 157.632 36.2893 157.632 39.3691V39.3895C157.632 43.3056 153.961 45.9979 148.902 45.9979ZM163.445 20.8085C162.017 20.8085 160.875 19.6663 160.875 18.2794C160.875 16.872 162.017 15.7298 163.445 15.7298C164.893 15.7298 166.015 16.872 166.015 18.2794C166.015 19.6663 164.893 20.8085 163.445 20.8085ZM161.242 45.5696V24.1127H165.648V45.5696H161.242ZM179.415 45.9979C173.153 45.9979 169.237 41.6943 169.237 34.8207V34.8003C169.237 28.0084 173.235 23.7048 179.354 23.7048C184.881 23.7048 188.226 27.2537 188.593 31.2922L188.614 31.435H184.412L184.371 31.2718C183.902 29.171 182.271 27.3965 179.395 27.3965C175.968 27.3965 173.745 30.252 173.745 34.8411V34.8615C173.745 39.5527 176.009 42.3062 179.415 42.3062C182.128 42.3062 183.861 40.7357 184.392 38.4105L184.412 38.2473H188.655L188.634 38.3901C188.165 42.6937 184.575 45.9979 179.415 45.9979ZM194.284 45.8755C192.775 45.8755 191.592 44.6925 191.592 43.2036C191.592 41.6943 192.775 40.5317 194.284 40.5317C195.773 40.5317 196.956 41.6943 196.956 43.2036C196.956 44.6925 195.773 45.8755 194.284 45.8755Z" fill="white"/>
</svg>
