<svg width="14" height="9" viewBox="0 0 14 9" fill="none" xmlns="http://www.w3.org/2000/svg">
<g clip-path="url(#clip0_62_109)">
<path d="M1.10575 6.57205C0.876732 6.57205 0.691071 6.75772 0.691071 6.98673C0.691071 7.21575 0.876732 7.40142 1.10575 7.40142V6.57205ZM12.164 1.45763L12.4572 1.75086C12.6191 1.58892 12.6191 1.32635 12.4572 1.16441L12.164 1.45763ZM10.7649 2.27023C10.603 2.43217 10.603 2.69474 10.7649 2.85668C10.9269 3.01862 11.1894 3.01862 11.3513 2.85668L10.7649 2.27023ZM11.3513 0.0585901C11.1894 -0.103352 10.9269 -0.103352 10.7649 0.0585901C10.603 0.220532 10.603 0.483098 10.7649 0.64504L11.3513 0.0585901ZM1.10575 7.40142H3.09781V6.57205H1.10575V7.40142ZM6.29808 5.58942L7.68278 3.28163L6.97163 2.85493L5.58692 5.16274L6.29808 5.58942ZM10.1719 1.87232H12.164V1.04295H10.1719V1.87232ZM11.8707 1.16441L10.7649 2.27023L11.3513 2.85668L12.4572 1.75086L11.8707 1.16441ZM12.4572 1.16441L11.3513 0.0585901L10.7649 0.64504L11.8707 1.75086L12.4572 1.16441ZM7.68278 3.28163C7.92286 2.88148 8.08823 2.60677 8.23901 2.40309C8.38448 2.20663 8.49772 2.10292 8.6198 2.03379L8.2112 1.31208C7.95299 1.45826 7.75809 1.65888 7.57248 1.90958C7.39217 2.15307 7.20352 2.46839 6.97163 2.85493L7.68278 3.28163ZM10.1719 1.04295C9.72114 1.04295 9.35368 1.0425 9.05212 1.07181C8.74166 1.10199 8.46935 1.1659 8.2112 1.31208L8.6198 2.03379C8.74188 1.96467 8.88907 1.92093 9.13235 1.89729C9.38464 1.87277 9.70522 1.87232 10.1719 1.87232V1.04295ZM3.09781 7.40142C3.54859 7.40142 3.91603 7.40186 4.21757 7.37256C4.52805 7.34237 4.80035 7.27845 5.05853 7.13226L4.64991 6.41055C4.52782 6.47972 4.38063 6.52345 4.13734 6.54706C3.88509 6.57161 3.56446 6.57205 3.09781 6.57205V7.40142ZM5.58692 5.16274C5.34683 5.56288 5.18148 5.83762 5.03068 6.04126C4.88522 6.23776 4.77199 6.34143 4.64991 6.41055L5.05853 7.13226C5.31672 6.98613 5.51162 6.78548 5.69723 6.53479C5.87753 6.29128 6.06619 5.97596 6.29808 5.58942L5.58692 5.16274Z" fill="#2D46C6"/>
<path d="M1.10572 1.04298C0.876702 1.04298 0.69104 1.22864 0.69104 1.45766C0.69104 1.68668 0.876702 1.87235 1.10572 1.87235V1.04298ZM12.1639 6.98676L12.4571 7.27997C12.6191 7.11802 12.6191 6.8555 12.4571 6.69356L12.1639 6.98676ZM11.3513 5.58774C11.1894 5.42579 10.9268 5.42579 10.7649 5.58774C10.6029 5.74968 10.6029 6.0122 10.7649 6.17415L11.3513 5.58774ZM10.7649 7.79938C10.6029 7.96132 10.6029 8.22384 10.7649 8.38579C10.9268 8.54774 11.1894 8.54774 11.3513 8.38579L10.7649 7.79938ZM7.98564 5.66758C7.86781 5.47118 7.61309 5.40754 7.41669 5.52537C7.2203 5.64319 7.15666 5.89792 7.27448 6.09431L7.98564 5.66758ZM5.284 2.77684C5.40183 2.97322 5.65656 3.0369 5.85295 2.91907C6.04935 2.80124 6.11299 2.54651 5.99516 2.35013L5.284 2.77684ZM1.10572 1.87235H3.6865V1.04298H1.10572V1.87235ZM9.58316 7.40145H12.1639V6.57208H9.58316V7.40145ZM12.4571 6.69356L11.3513 5.58774L10.7649 6.17415L11.8707 7.27997L12.4571 6.69356ZM11.8707 6.69356L10.7649 7.79938L11.3513 8.38579L12.4571 7.27997L11.8707 6.69356ZM9.58316 6.57208C9.22614 6.57208 9.10345 6.57026 8.99503 6.54919L8.83656 7.36324C9.04208 7.40327 9.25965 7.40145 9.58316 7.40145V6.57208ZM7.27448 6.09431C7.44091 6.37165 7.55127 6.5592 7.69132 6.71484L8.30787 6.16011C8.234 6.078 8.16931 5.97372 7.98564 5.66758L7.27448 6.09431ZM8.99503 6.54919C8.7298 6.49755 8.48862 6.36098 8.30787 6.16011L7.69132 6.71484C7.99255 7.04963 8.39451 7.27721 8.83656 7.36324L8.99503 6.54919ZM3.6865 1.87235C4.04351 1.87235 4.16618 1.87416 4.27462 1.89526L4.43307 1.08118C4.22754 1.04117 4.00998 1.04298 3.6865 1.04298V1.87235ZM5.99516 2.35013C5.82873 2.07275 5.71837 1.88526 5.57832 1.7296L4.96176 2.28431C5.03565 2.36644 5.10031 2.4707 5.284 2.77684L5.99516 2.35013ZM4.27462 1.89526C4.53984 1.94688 4.78104 2.08345 4.96176 2.28431L5.57832 1.7296C5.27711 1.39483 4.8751 1.16721 4.43307 1.08118L4.27462 1.89526Z" fill="#2D46C6"/>
</g>
<defs>
<clipPath id="clip0_62_109">
<rect width="13.2698" height="8.44444" fill="white"/>
</clipPath>
</defs>
</svg>
